<svg xmlns="http://www.w3.org/2000/svg" width="256" height="256"><path fill="#fff" d="M144.503 103.625l-4.133.634.306 4.171-3.073-2.837-3.07 2.841.302-4.172-4.135-.629 3.45-2.364-2.086-3.626 3.999 1.223 1.534-3.89 1.539 3.888 3.998-1.227-2.082 3.628zm21-25l-4.133.634.306 4.171-3.073-2.837-3.07 2.841.302-4.172-4.135-.629 3.45-2.364-2.086-3.626 3.999 1.223 1.534-3.89 1.539 3.888 3.998-1.227-2.082 3.628zm22 18l-4.133.634.306 4.171-3.073-2.837-3.07 2.841.302-4.172-4.135-.629 3.45-2.364-2.086-3.626 3.999 1.223 1.534-3.89 1.539 3.888 3.998-1.227-2.082 3.628zm-19 42l-4.133.635.306 4.17-3.073-2.836-3.07 2.84.302-4.172-4.135-.629 3.45-2.364-2.086-3.626 3.999 1.222 1.534-3.889 1.539 3.887 3.998-1.226-2.082 3.628zm3.405-24.243l-2.514-1.319-2.513 1.324.477-2.8-2.034-1.98 2.81-.411 1.255-2.547 1.258 2.545 2.81.407-2.031 1.983z"/><path fill="#fff" d="M172.612 138.438l-4.157-.376-.701 4.115-2.301-3.485-3.654 2.02 1.292-3.974-3.856-1.597 3.91-1.468-1.156-4.009 3.582 2.142 2.419-3.403.561 4.135 4.169-.234-2.886 3.015zm18.967-41.926l-4.156-.379-.701 4.114-2.301-3.484-3.652 2.018 1.29-3.968-3.858-1.6 3.909-1.464-1.153-4.016 3.584 2.143 2.418-3.403.558 4.136 4.171-.229-2.887 3.015zm-20.962-17.975l-4.157-.37-.703 4.113-2.298-3.483-3.657 2.017 1.291-3.972-3.857-1.599 3.911-1.466-1.156-4.011 3.585 2.144 2.417-3.406.56 4.139 4.168-.236-2.886 3.017zm-21.962 24.964l-4.157-.378-.703 4.113-2.297-3.483-3.657 2.018 1.291-3.972-3.859-1.596 3.912-1.47-1.155-4.011 3.583 2.144 2.418-3.404.559 4.137 4.172-.237-2.889 3.018zm27.831 9.172l-2.452-1.426-2.557 1.222.589-2.774-1.949-2.056 2.821-.297 1.354-2.49 1.151 2.592 2.786.518-2.106 1.898z"/><path d="M236.486 146.885c-10.654 59.474-67.511 99.063-126.996 88.406-59.484-10.653-99.07-67.51-88.414-126.984 10.651-59.482 67.508-99.06 126.995-88.402 59.483 10.652 99.065 67.504 88.415 126.98z" fill="#fff"/><path d="M145.36 35.036c-51.125-9.156-99.998 24.87-109.153 75.99-9.158 51.125 24.864 100.003 75.99 109.164 51.124 9.148 99.992-24.882 109.15-76.004 9.158-51.119-24.862-99.993-75.987-109.15zm91.121 111.86c-10.653 59.483-67.51 99.072-126.995 88.422C50 224.66 10.416 167.801 21.074 108.315 31.725 48.832 88.585 9.247 148.071 19.904c59.483 10.653 99.065 67.513 88.41 126.992z" fill="#000100"/><g fill="#000100"><path d="M87.734 50.753l.557 110.438 12.037-5.249-2.136-5.31-3.295-98.599-7.163-1.28z"/><path d="M77.697 72.382s102.554-38.904 117.626 31.543c0 0 9.657 33.044-38.848 44.821 0 0-33.144 8.24-36.416 8.267l-3.29.033s-32.593 6.487-25.002 46.677c0 0-25.204-35.945 21.928-64.487 0 0 18.241-15.232 12.537-38.435 0 .001-5.646-27.56-48.535-28.419z"/><path d="M88.252 153.215l-.089 19.042 12.877-13.412-12.788-5.63z"/><path d="M146.725 151.137s-49.711 8.309-54.696 29.868c-4.984 21.564-6.068-32.612 25.806-35.055 31.871-2.42 2.732-1.481 2.732-1.481l30.386-2.719-3.832 7.167"/></g><path fill="#fff" d="M145.02 101.449l-4.004 1.134.825 4.083-3.388-2.416-2.68 3.183-.218-4.153-4.164-.111 3.118-2.76-2.515-3.321 4.104.706 1.026-4.028 2.005 3.647 3.793-1.708-1.606 3.843zm20.403-24.7l-4.002 1.135.824 4.082-3.388-2.416-2.678 3.183-.22-4.154-4.164-.11 3.117-2.76-2.513-3.321 4.102.707 1.028-4.029 2.004 3.647 3.793-1.709-1.603 3.844zm22.553 18.256l-4.003 1.136.825 4.081-3.389-2.416-2.679 3.184-.218-4.154-4.164-.111 3.117-2.759-2.513-3.321 4.102.707 1.027-4.03 2.004 3.648 3.795-1.71-1.607 3.844zm-19.33 40.81l-4.003 1.134.824 4.083-3.389-2.417-2.678 3.184-.219-4.153-4.163-.112 3.116-2.759-2.513-3.322 4.103.707 1.026-4.029 2.005 3.648 3.794-1.709-1.606 3.844zm4.099-23.24l-2.694-.869-2.239 1.728-.005-2.826-2.328-1.596 2.68-.881.799-2.713 1.668 2.283 2.824-.077-1.656 2.286z"/></svg>