<svg xmlns="http://www.w3.org/2000/svg" version="1.0" width="256" height="256"><g style="line-height:125%"><path d="M227.352 154.13c0 25.293-5.24 46.94-15.722 64.942-11.85 20.507-27.914 30.761-48.194 30.761-18.913 0-32.243-10.026-39.99-30.078-8.887 20.052-25.065 30.078-48.535 30.078-14.128 0-25.863-4.67-35.205-14.013-9.343-9.343-14.014-21.42-14.014-36.23 0-14.356 4.785-26.32 14.356-35.89 9.798-9.798 21.76-14.697 35.888-14.697 21.42 0 36.914 10.14 46.485 30.42a1482.76 1482.76 0 0 1 11.963 28.028c6.152 9.114 15.95 13.671 29.394 13.671 15.495 0 27.571-8.658 36.23-25.976 7.292-14.583 10.938-32.015 10.938-52.295 0-28.939-7.634-53.89-22.9-74.854-17.546-23.925-41.244-36.116-71.094-36.572 5.696 8.66 8.545 18.685 8.545 30.078 0 10.71-4.102 19.71-12.305 27.002-7.975 7.292-17.546 10.938-28.71 10.938-10.938 0-20.509-3.532-28.712-10.596-7.975-7.291-11.963-16.178-11.963-26.66 0-13.444 5.583-24.837 16.748-34.18C73.088 17.526 90.52 12.285 112.85 12.284c33.268 0 60.042 10.938 80.323 32.813 22.786 25.065 34.18 61.41 34.18 109.033m-117.58-93.994c0-9.342-3.532-18.57-10.596-27.685C76.619 37.008 65.34 46.123 65.34 59.794c0 5.47 2.05 10.254 6.152 14.356 4.101 4.101 8.773 6.152 14.014 6.152 6.608 0 12.304-1.823 17.09-5.469 4.784-3.873 7.177-8.772 7.177-14.697m-4.443 135.352c0-8.431-2.963-15.609-8.887-21.534-5.924-6.152-12.874-9.228-20.85-9.228-8.203 0-15.267 3.076-21.191 9.228-5.697 5.925-8.545 13.103-8.545 21.534 0 7.747 2.848 14.355 8.545 19.824 5.924 5.24 12.988 7.861 21.191 7.861 8.204 0 15.153-2.62 20.85-7.861 5.924-5.469 8.887-12.077 8.887-19.824" style="-inkscape-font-specification:Subhadra" font-size="350" font-family="Subhadra" font-weight="400" letter-spacing="0" word-spacing="0"/></g></svg>