<svg id="LJd0ep.tif_2_" xmlns="http://www.w3.org/2000/svg" width="12.1" height="25.2" viewBox="0 0 12.1 25.2">
  <g id="Group_1" data-name="Group 1">
    <path id="Path_1" data-name="Path 1" d="M2.7,12.6H.5c-.3,0-.5-.1-.5-.4v-4H2.1c.6,0,.6,0,.6-.6a23.809,23.809,0,0,1,.1-3.8A3.871,3.871,0,0,1,6.4.2C7.8,0,9.2.1,10.5,0h1.2a.265.265,0,0,1,.3.3V4.2a.366.366,0,0,1-.4.4H9.1c-.8,0-1,.3-1,1V7.8c0,.3.1.4.4.4h3.1c.4,0,.5.1.5.5-.1,1.2-.2,2.4-.3,3.5,0,.3-.2.4-.5.4H8.6c-.4,0-.5.1-.5.5V24.5c0,.7,0,.7-.7.7H3.2c-.4,0-.6-.1-.6-.6V13.2A1.268,1.268,0,0,0,2.7,12.6Z" fill="#0865de"/>
  </g>
</svg>
