<?xml version="1.0" encoding="UTF-8" standalone="no"?>
<!-- Created with Inkscape (http://www.inkscape.org/) -->

<svg
   xmlns:svg="http://www.w3.org/2000/svg"
   xmlns="http://www.w3.org/2000/svg"
   xmlns:sodipodi="http://sodipodi.sourceforge.net/DTD/sodipodi-0.dtd"
   xmlns:inkscape="http://www.inkscape.org/namespaces/inkscape"
   version="1.0"
   width="256"
   height="256"
   id="svg2"
   inkscape:version="0.48.3.1 r9886"
   sodipodi:docname="Telugu_va_+_(i).svg">
  <sodipodi:namedview
     pagecolor="#ffffff"
     bordercolor="#666666"
     borderopacity="1"
     objecttolerance="10"
     gridtolerance="10"
     guidetolerance="10"
     inkscape:pageopacity="0"
     inkscape:pageshadow="2"
     inkscape:window-width="1366"
     inkscape:window-height="713"
     id="namedview6"
     showgrid="false"
     inkscape:zoom="0.921875"
     inkscape:cx="128"
     inkscape:cy="215.14357"
     inkscape:window-x="0"
     inkscape:window-y="27"
     inkscape:window-maximized="1"
     inkscape:current-layer="text2992" />
  <defs
     id="defs4" />
  <g
     style="font-size:40px;font-style:normal;font-weight:normal;line-height:125%;letter-spacing:0px;word-spacing:0px;fill:#000000;fill-opacity:1;stroke:none;font-family:Sans"
     id="text2992">
    <path
       d="m 227.35226,154.1302 c -2e-4,25.29304 -5.24108,46.94016 -15.72266,64.94141 -11.84913,20.50782 -27.91356,30.76172 -48.19336,30.76172 -18.91287,0 -32.24294,-10.02603 -39.99023,-30.07813 -8.88681,20.0521 -25.065176,30.07813 -48.535156,30.07813 -14.127639,0 -25.862653,-4.67122 -35.205078,-14.01367 -9.342452,-9.34243 -14.013671,-21.41924 -14.013672,-36.23047 1e-6,-14.35541 4.785152,-26.31829 14.355469,-35.88867 9.798153,-9.79809 21.761032,-14.69717 35.888672,-14.69727 21.419199,1e-4 36.913975,10.14006 46.484375,30.41992 4.10146,9.34251 8.08909,18.68495 11.96289,28.02735 6.15223,9.11461 15.9504,13.6719 29.39453,13.67187 15.49464,3e-5 27.57145,-8.65882 36.23047,-25.97656 7.29149,-14.58327 10.93732,-32.01489 10.9375,-52.29492 -1.8e-4,-28.93867 -7.63364,-53.889817 -22.90039,-74.853519 -17.54572,-23.925576 -41.24361,-36.116319 -71.09375,-36.572266 5.69652,8.659064 8.54482,18.685095 8.54492,30.078125 -1e-4,10.709813 -4.10166,19.710455 -12.30469,27.001953 -7.97534,7.291821 -17.545638,10.93765 -28.710933,10.9375 C 73.543619,99.442853 63.973316,95.910956 55.770229,88.847 47.794947,81.555501 43.807321,72.668792 43.807339,62.186844 43.807321,48.743034 49.389998,37.349816 60.555386,28.007156 73.087891,17.525618 90.519514,12.284737 112.85031,12.2845 c 33.26811,2.37e-4 60.04217,10.937726 80.32226,32.8125 22.78627,25.065284 34.17949,61.40965 34.17969,109.0332 M 109.77414,60.136063 c -9e-5,-9.34225 -3.53199,-18.570756 -10.595708,-27.685547 -22.558644,4.557504 -33.837929,13.672078 -33.83789,27.34375 -3.9e-5,5.468934 2.05074,10.254085 6.152344,14.355468 4.101513,4.101734 8.772732,6.152513 14.013671,6.152344 6.608007,1.69e-4 12.304616,-1.822745 17.089843,-5.46875 4.78508,-3.873519 7.17765,-8.772603 7.17774,-14.697265 m -4.44336,135.351567 c -8e-5,-8.43093 -2.96232,-15.60866 -8.886723,-21.53321 -5.924543,-6.15226 -12.874406,-9.22843 -20.849609,-9.22851 -8.203166,8e-5 -15.266961,3.07625 -21.191406,9.22851 -5.696637,5.92455 -8.544942,13.10228 -8.544922,21.53321 -2e-5,7.74744 2.848285,14.3555 8.544922,19.82421 5.924445,5.24092 12.98824,7.86136 21.191406,7.86133 8.203067,3e-5 15.15293,-2.62041 20.849609,-7.86133 5.924403,-5.46871 8.886643,-12.07677 8.886723,-19.82421"
       style="font-size:350px;font-variant:normal;font-stretch:normal;font-family:Subhadra;-inkscape-font-specification:Subhadra"
       id="path2997" />
  </g>
</svg>
