<svg xmlns="http://www.w3.org/2000/svg" width="21.5" height="17.692" viewBox="0 0 21.5 17.692">
  <g id="olsUcu.tif_2_" transform="translate(-47.6 -7.82)">
    <g id="Group_2" data-name="Group 2">
      <path id="Path_2" data-name="Path 2" d="M68.5,8.1a5.28,5.28,0,0,1-1.8,2.4,9.385,9.385,0,0,0,2.4-.6,6.065,6.065,0,0,1-1.4,1.7,1.643,1.643,0,0,0-.7,1.6A12.583,12.583,0,0,1,47.6,23.5,9.107,9.107,0,0,0,54,21.7a4.778,4.778,0,0,1-4.1-3.1,5.462,5.462,0,0,0,1.8-.1,4.618,4.618,0,0,1-3.4-4.4,5.918,5.918,0,0,0,1.9.5l-.6-.6a4.442,4.442,0,0,1-.8-4.9c.1-.3.2-.4.5-.1a12.373,12.373,0,0,0,8.1,4.2c.7.1.7.1.7-.6a4.4,4.4,0,0,1,2.4-4.3,4.583,4.583,0,0,1,5,.6.8.8,0,0,0,.9.2A18.943,18.943,0,0,0,68.5,8.1Z" fill="#0865de"/>
    </g>
  </g>
</svg>
