<svg xmlns="http://www.w3.org/2000/svg" width="22.241" height="19.25" viewBox="0 0 22.241 19.25">
  <g id="vO5Fz5.tif_2_" transform="translate(-100.534 -6.882)">
    <g id="Group_3" data-name="Group 3">
      <path id="Path_3" data-name="Path 3" d="M116.2,12.8a1.175,1.175,0,0,0-1.1-1,2.622,2.622,0,0,0-1.5.2q-.45.15-.3-.3c1.1-3.6,3.9-5.3,6.9-4.7a2.687,2.687,0,0,1,2.2,1.9c.1.4.2.8.3,1.1.1.1.1.1,0,.2v1.3c.1.1.1.2,0,.2-.8,3.9-3.3,6.8-5.6,9.8-.1.2-.3.3-.4.5a.43.43,0,0,1-.4.4c-.7.6-1.3,1.3-2,1.9a10.532,10.532,0,0,1-2.9,1.7,2.534,2.534,0,0,1-2.7-.7,7.3,7.3,0,0,1-1.6-3c-.6-2.3-1.2-4.5-1.9-6.8a7.19,7.19,0,0,0-1.3-2.8.8.8,0,0,0-1.1-.2.758.758,0,0,1-.4.2c-1,.6-1.2.6-1.8-.5-.1-.2-.1-.3.1-.5,1.5-1.3,3-2.8,4.6-4a4.5,4.5,0,0,1,1.2-.6,2.517,2.517,0,0,1,2.8.9,6.22,6.22,0,0,1,.9,2.6c0,.2.1.4.1.6.1.1.1.1,0,.2a6.753,6.753,0,0,0,.2,1.4c.1.1.1.1,0,.2a18.163,18.163,0,0,0,1.1,4.6c.1.2.2.5.3.7.4.7.9.8,1.4.1a11.7,11.7,0,0,0,2.8-4.8A3.747,3.747,0,0,1,116.2,12.8Z" fill="#0865de"/>
    </g>
  </g>
</svg>
